<svg width="819" height="300" viewBox="0 0 819 300" fill="none" xmlns="http://www.w3.org/2000/svg">
<rect x="480" y="180" width="90" height="26" fill="#F7F7F8"/>
<rect x="9" y="130" width="90" height="33" fill="#F7F7F8"/>
<rect x="9" y="137" width="34" height="69" fill="#F7F7F8"/>
<rect x="480" y="130" width="90" height="26" fill="#F7F7F8"/>
<rect x="480" y="80" width="90" height="26" fill="#F7F7F8"/>
<path d="M676 80H740.5L766 106H676V80Z" fill="#F7F7F8"/>
<path d="M676 180L766 195.5L740 206H676V180Z" fill="#B6BCC3"/>
<rect x="612" y="80" width="126" height="26" transform="rotate(90 612 80)" fill="#F7F7F8"/>
<path d="M612 80L642.5 189.5L656.5 206H631L612 112.5L586 80H612Z" fill="#B6BCC4"/>
<path d="M766 106V195.5L740 206V80L766 106Z" fill="#F7F7F8"/>
<rect x="657" y="80" width="126" height="26" transform="rotate(90 657 80)" fill="#F7F7F8"/>
<rect x="702" y="80" width="90" height="26" transform="rotate(90 702 80)" fill="#F7F7F8"/>
<rect x="9" y="80" width="90" height="26" fill="#F7F7F8"/>
<rect x="9" y="224" width="757" height="13" fill="#F7F7F8"/>
<path d="M148.596 121.392C149.584 121.392 150.312 121.782 150.78 122.562C151.3 123.29 151.56 124.096 151.56 124.98C151.56 126.072 151.378 126.852 151.014 127.32C150.702 127.736 150.078 128.178 149.142 128.646C146.958 129.686 144.254 130.518 141.03 131.142C137.806 131.766 134.348 132.078 130.656 132.078C126.028 132.078 122.622 131.298 120.438 129.738C118.306 128.178 116.98 126.306 116.46 124.122C115.992 121.886 115.758 118.974 115.758 115.386C115.758 111.538 115.914 107.768 116.226 104.076C116.538 100.332 117.084 95.574 117.864 89.802C118.228 87.306 119.216 85.512 120.828 84.42C122.44 83.276 124.208 82.704 126.132 82.704C127.744 82.704 130.37 82.652 134.01 82.548L140.796 82.47C143.604 82.47 145.632 82.548 146.88 82.704C148.44 83.016 149.584 83.38 150.312 83.796C151.092 84.16 151.482 84.81 151.482 85.746C151.482 86.786 151.118 87.8 150.39 88.788C149.714 89.776 148.674 90.27 147.27 90.27C145.658 90.27 143.344 90.166 140.328 89.958C137.312 89.75 135.05 89.646 133.542 89.646C132.242 89.646 130.968 89.724 129.72 89.88C128.264 89.984 127.224 90.166 126.6 90.426C125.976 90.686 125.612 91.128 125.508 91.752C124.78 97.108 124.416 101.06 124.416 103.608C125.612 103.764 126.782 103.842 127.926 103.842C129.382 103.842 130.942 103.764 132.606 103.608C134.27 103.452 135.336 103.348 135.804 103.296C138.56 103.036 140.926 102.906 142.902 102.906C144.046 102.906 144.904 103.114 145.476 103.53C146.1 103.946 146.412 104.518 146.412 105.246C146.412 106.39 146.1 107.274 145.476 107.898C144.904 108.522 143.864 108.99 142.356 109.302C140.536 109.666 138.274 109.952 135.57 110.16C132.918 110.368 130.318 110.472 127.77 110.472C126.886 110.472 125.664 110.42 124.104 110.316C123.948 113.488 123.87 116.426 123.87 119.13C123.87 122.822 126.314 124.668 131.202 124.668C133.802 124.668 135.96 124.486 137.676 124.122C139.392 123.758 141.368 123.238 143.604 122.562C145.684 121.782 147.348 121.392 148.596 121.392ZM184.925 111.33C186.745 114.398 188.565 117.128 190.385 119.52C192.257 121.86 194.701 124.746 197.717 128.178C198.081 128.542 198.263 128.958 198.263 129.426C198.263 130.154 197.847 130.778 197.015 131.298C196.235 131.818 195.273 132.078 194.129 132.078C192.517 132.078 190.775 131.402 188.903 130.05C187.239 128.854 185.757 127.268 184.457 125.292C183.157 123.316 181.649 120.742 179.933 117.57C178.581 115.126 177.775 113.696 177.515 113.28C175.487 114.112 172.315 114.632 167.999 114.84C167.999 116.608 168.155 119 168.467 122.016C168.779 125.136 168.935 127.398 168.935 128.802C168.935 129.738 168.467 130.518 167.531 131.142C166.647 131.766 165.633 132.078 164.489 132.078C163.137 132.078 162.097 131.532 161.369 130.44C160.641 128.984 160.173 127.242 159.965 125.214C159.757 123.186 159.653 120.768 159.653 117.96C159.653 114.996 159.835 111.642 160.199 107.898C160.511 103.738 160.667 100.67 160.667 98.694C160.667 97.082 160.511 94.924 160.199 92.22C160.147 91.752 160.069 90.946 159.965 89.802C159.861 88.658 159.809 87.618 159.809 86.682C159.809 85.954 160.069 85.33 160.589 84.81C161.161 84.238 161.759 83.848 162.383 83.64C166.595 82.964 170.703 82.626 174.707 82.626C181.519 82.626 187.161 83.9 191.633 86.448C196.105 88.996 198.341 92.87 198.341 98.07C198.341 99.682 197.977 101.242 197.249 102.75C196.573 104.206 195.637 105.428 194.441 106.416C191.269 108.86 188.097 110.498 184.925 111.33ZM190.151 97.836C190.151 95.34 188.825 93.312 186.173 91.752C183.521 90.14 179.751 89.334 174.863 89.334C172.679 89.334 170.521 89.594 168.389 90.114L168.467 94.092C168.467 96.38 168.389 98.616 168.233 100.8C168.077 102.984 167.999 105.324 167.999 107.82C168.883 107.612 169.819 107.482 170.807 107.43C171.795 107.326 172.445 107.248 172.757 107.196C175.045 106.988 176.813 106.728 178.061 106.416C180.401 105.688 182.325 105.038 183.833 104.466C185.393 103.842 186.823 102.984 188.123 101.892C189.475 100.748 190.151 99.396 190.151 97.836ZM239.331 88.164C239.331 86.656 239.669 85.356 240.345 84.264C241.073 83.12 242.139 82.548 243.543 82.548C244.739 82.548 245.805 82.782 246.741 83.25C247.677 83.718 248.145 84.498 248.145 85.59C248.145 87.722 248.041 90.712 247.833 94.56C247.625 98.304 247.521 101.086 247.521 102.906C247.521 105.766 247.625 109.588 247.833 114.372C248.041 118.948 248.145 122.302 248.145 124.434C248.145 126.15 248.119 127.424 248.067 128.256C248.067 129.088 247.599 129.92 246.663 130.752C245.779 131.532 244.401 131.922 242.529 131.922C241.541 131.922 240.683 131.766 239.955 131.454C239.279 131.09 238.811 130.7 238.551 130.284C236.107 127.32 232.545 122.276 227.865 115.152C222.613 107.196 218.323 101.112 214.995 96.9C215.411 100.644 215.619 105.22 215.619 110.628C215.619 113.02 215.567 116.14 215.463 119.988C215.411 123.784 215.307 126.28 215.151 127.476C214.943 128.984 214.475 130.154 213.747 130.986C213.071 131.766 211.979 132.156 210.471 132.156C209.327 132.156 208.469 131.844 207.897 131.22C207.377 130.544 207.065 129.4 206.961 127.788C206.909 125.656 207.039 122.458 207.351 118.194C207.403 117.518 207.481 116.348 207.585 114.684C207.689 113.02 207.741 111.538 207.741 110.238C207.741 106.65 207.559 102.542 207.195 97.914C206.883 92.818 206.727 89.048 206.727 86.604C206.727 85.356 207.169 84.394 208.053 83.718C208.989 83.042 210.055 82.704 211.251 82.704C212.291 82.704 213.383 82.964 214.527 83.484C218.999 89.1 225.057 97.472 232.701 108.6L240.033 119.832C240.085 119 240.111 117.83 240.111 116.322C240.111 113.67 240.059 110.81 239.955 107.742C239.851 104.674 239.773 102.594 239.721 101.502C239.461 96.458 239.331 92.012 239.331 88.164ZM294.93 130.83C294.254 129.946 293.682 128.984 293.214 127.944C292.746 126.852 292.252 125.552 291.732 124.044C291.628 123.784 291.316 123.004 290.796 121.704C290.328 120.404 289.782 119.286 289.158 118.35C285.882 118.818 283.204 119.052 281.124 119.052C279.98 119.052 278.706 119.026 277.302 118.974C275.95 118.87 274.936 118.818 274.26 118.818C271.66 118.61 269.58 118.506 268.02 118.506C267.396 119.338 266.85 120.222 266.382 121.158C265.966 122.094 265.42 123.498 264.744 125.37C263.808 128.074 263.002 129.998 262.326 131.142C261.858 131.922 260.948 132.312 259.596 132.312C258.452 132.312 257.386 132.078 256.398 131.61C255.462 131.09 254.994 130.388 254.994 129.504C255.41 127.528 256.06 125.448 256.944 123.264C257.88 121.028 259.206 118.064 260.922 114.372L264.042 106.728C265.758 102.36 267.318 98.616 268.722 95.496C270.178 92.376 272.076 88.684 274.416 84.42C274.728 83.796 275.248 83.276 275.976 82.86C276.704 82.392 277.51 82.158 278.394 82.158C279.382 82.158 280.084 82.236 280.5 82.392C280.968 82.496 281.332 82.704 281.592 83.016C281.852 83.276 282.242 83.848 282.762 84.732C284.53 87.488 286.038 90.322 287.286 93.234C288.586 96.146 290.224 100.176 292.2 105.324L293.838 109.458C295.294 113.202 296.542 116.348 297.582 118.896C298.674 121.392 299.87 123.68 301.17 125.76C302.002 127.112 302.418 128.048 302.418 128.568C302.418 129.816 302.028 130.778 301.248 131.454C300.52 132.078 299.558 132.39 298.362 132.39C296.854 132.39 295.71 131.87 294.93 130.83ZM286.896 111.954C286.064 110.186 284.868 107.118 283.308 102.75C281.696 98.07 280.084 94.352 278.472 91.596C277.484 94.092 276.028 97.316 274.104 101.268C272.804 103.712 271.322 107.248 269.658 111.876C272.986 112.292 276.574 112.5 280.422 112.5C283.178 112.5 285.336 112.318 286.896 111.954ZM341.859 88.164C341.859 86.656 342.197 85.356 342.873 84.264C343.601 83.12 344.667 82.548 346.071 82.548C347.267 82.548 348.333 82.782 349.269 83.25C350.205 83.718 350.673 84.498 350.673 85.59C350.673 87.722 350.569 90.712 350.361 94.56C350.153 98.304 350.049 101.086 350.049 102.906C350.049 105.766 350.153 109.588 350.361 114.372C350.569 118.948 350.673 122.302 350.673 124.434C350.673 126.15 350.647 127.424 350.595 128.256C350.595 129.088 350.127 129.92 349.191 130.752C348.307 131.532 346.929 131.922 345.057 131.922C344.069 131.922 343.211 131.766 342.483 131.454C341.807 131.09 341.339 130.7 341.079 130.284C338.635 127.32 335.073 122.276 330.393 115.152C325.141 107.196 320.851 101.112 317.523 96.9C317.939 100.644 318.147 105.22 318.147 110.628C318.147 113.02 318.095 116.14 317.991 119.988C317.939 123.784 317.835 126.28 317.679 127.476C317.471 128.984 317.003 130.154 316.275 130.986C315.599 131.766 314.507 132.156 312.999 132.156C311.855 132.156 310.997 131.844 310.425 131.22C309.905 130.544 309.593 129.4 309.489 127.788C309.437 125.656 309.567 122.458 309.879 118.194C309.931 117.518 310.009 116.348 310.113 114.684C310.217 113.02 310.269 111.538 310.269 110.238C310.269 106.65 310.087 102.542 309.723 97.914C309.411 92.818 309.255 89.048 309.255 86.604C309.255 85.356 309.697 84.394 310.581 83.718C311.517 83.042 312.583 82.704 313.779 82.704C314.819 82.704 315.911 82.964 317.055 83.484C321.527 89.1 327.585 97.472 335.229 108.6L342.561 119.832C342.613 119 342.639 117.83 342.639 116.322C342.639 113.67 342.587 110.81 342.483 107.742C342.379 104.674 342.301 102.594 342.249 101.502C341.989 96.458 341.859 92.012 341.859 88.164ZM373.043 82.548C380.115 82.548 385.705 83.536 389.813 85.512C393.973 87.436 397.119 89.594 399.251 91.986C400.967 93.962 402.371 96.25 403.463 98.85C404.555 101.398 405.101 104.466 405.101 108.054C405.101 110.706 404.503 113.488 403.307 116.4C402.111 119.26 400.551 121.574 398.627 123.342C396.599 125.266 394.675 126.826 392.855 128.022C391.087 129.218 388.669 130.206 385.601 130.986C382.585 131.714 378.737 132.078 374.057 132.078C370.521 132.078 367.323 131.688 364.463 130.908C361.603 130.076 360.173 128.698 360.173 126.774C360.173 125.994 360.511 125.396 361.187 124.98C361.915 124.512 362.695 124.278 363.527 124.278C363.995 124.278 364.307 124.304 364.463 124.356C364.827 120.924 365.009 117.284 365.009 113.436C365.009 109.12 364.905 105.558 364.697 102.75C364.489 99.89 364.203 97.056 363.839 94.248C363.787 93.884 363.657 92.87 363.449 91.206C363.293 89.542 363.215 87.852 363.215 86.136C363.215 85.044 363.761 84.134 364.853 83.406C365.945 82.626 367.063 82.236 368.207 82.236C368.883 82.236 369.793 82.288 370.937 82.392C371.873 82.496 372.575 82.548 373.043 82.548ZM372.029 124.746C373.277 124.954 374.915 125.058 376.943 125.058C380.375 125.058 383.625 124.356 386.693 122.952C389.761 121.496 392.231 119.494 394.103 116.946C395.975 114.346 396.911 111.356 396.911 107.976C396.911 104.44 396.287 101.424 395.039 98.928C393.791 96.432 391.867 94.378 389.267 92.766C387.343 91.57 384.977 90.712 382.169 90.192C379.361 89.62 375.981 89.334 372.029 89.334C372.029 90.582 372.107 92.142 372.263 94.014C372.263 94.638 372.315 95.73 372.419 97.29C372.731 103.322 372.887 108.184 372.887 111.876C372.887 117.232 372.601 121.522 372.029 124.746ZM436.31 82.392C439.638 82.392 442.498 82.808 444.89 83.64C447.334 84.472 449.492 85.746 451.364 87.462C454.64 90.426 456.928 93.676 458.228 97.212C459.58 100.696 460.256 105.168 460.256 110.628C460.256 111.98 460.074 113.254 459.71 114.45C459.346 115.594 458.8 116.998 458.072 118.662L457.058 121.158C456.33 123.134 454.822 124.98 452.534 126.696C450.246 128.36 447.672 129.686 444.812 130.674C441.952 131.662 439.352 132.156 437.012 132.156C432.228 132.156 428.042 131.376 424.454 129.816C420.918 128.204 417.98 125.682 415.64 122.25C414.444 120.43 413.508 118.402 412.832 116.166C412.156 113.878 411.818 111.694 411.818 109.614C411.818 104.31 412.754 99.708 414.626 95.808C416.55 91.856 419.202 88.788 422.582 86.604C424.506 85.46 426.794 84.472 429.446 83.64C432.15 82.808 434.438 82.392 436.31 82.392ZM420.086 109.614C420.086 112.318 420.736 114.84 422.036 117.18C423.388 119.468 425.182 121.288 427.418 122.64C429.706 123.992 432.202 124.668 434.906 124.668C440.47 124.668 444.708 123.264 447.62 120.456C450.584 117.648 452.066 113.696 452.066 108.6C452.066 104.648 451.624 101.528 450.74 99.24C449.856 96.952 448.27 94.898 445.982 93.078C444.734 92.038 443.382 91.31 441.926 90.894C440.522 90.426 438.858 90.192 436.934 90.192C433.606 90.192 430.668 91.024 428.12 92.688C425.572 94.352 423.596 96.666 422.192 99.63C420.788 102.594 420.086 105.922 420.086 109.614Z" fill="#F7F7F8"/>
<path d="M141.888 185.33C143.708 188.398 145.528 191.128 147.348 193.52C149.22 195.86 151.664 198.746 154.68 202.178C155.044 202.542 155.226 202.958 155.226 203.426C155.226 204.154 154.81 204.778 153.978 205.298C153.198 205.818 152.236 206.078 151.092 206.078C149.48 206.078 147.738 205.402 145.866 204.05C144.202 202.854 142.72 201.268 141.42 199.292C140.12 197.316 138.612 194.742 136.896 191.57C135.544 189.126 134.738 187.696 134.478 187.28C132.45 188.112 129.278 188.632 124.962 188.84C124.962 190.608 125.118 193 125.43 196.016C125.742 199.136 125.898 201.398 125.898 202.802C125.898 203.738 125.43 204.518 124.494 205.142C123.61 205.766 122.596 206.078 121.452 206.078C120.1 206.078 119.06 205.532 118.332 204.44C117.604 202.984 117.136 201.242 116.928 199.214C116.72 197.186 116.616 194.768 116.616 191.96C116.616 188.996 116.798 185.642 117.162 181.898C117.474 177.738 117.63 174.67 117.63 172.694C117.63 171.082 117.474 168.924 117.162 166.22C117.11 165.752 117.032 164.946 116.928 163.802C116.824 162.658 116.772 161.618 116.772 160.682C116.772 159.954 117.032 159.33 117.552 158.81C118.124 158.238 118.722 157.848 119.346 157.64C123.558 156.964 127.666 156.626 131.67 156.626C138.482 156.626 144.124 157.9 148.596 160.448C153.068 162.996 155.304 166.87 155.304 172.07C155.304 173.682 154.94 175.242 154.212 176.75C153.536 178.206 152.6 179.428 151.404 180.416C148.232 182.86 145.06 184.498 141.888 185.33ZM147.114 171.836C147.114 169.34 145.788 167.312 143.136 165.752C140.484 164.14 136.714 163.334 131.826 163.334C129.642 163.334 127.484 163.594 125.352 164.114L125.43 168.092C125.43 170.38 125.352 172.616 125.196 174.8C125.04 176.984 124.962 179.324 124.962 181.82C125.846 181.612 126.782 181.482 127.77 181.43C128.758 181.326 129.408 181.248 129.72 181.196C132.008 180.988 133.776 180.728 135.024 180.416C137.364 179.688 139.288 179.038 140.796 178.466C142.356 177.842 143.786 176.984 145.086 175.892C146.438 174.748 147.114 173.396 147.114 171.836ZM185.14 156.392C188.624 156.392 191.796 156.834 194.656 157.718C197.516 158.55 199.856 159.798 201.676 161.462C204.952 164.426 207.24 167.676 208.54 171.212C209.892 174.696 210.568 179.168 210.568 184.628C210.568 185.772 210.412 186.812 210.1 187.748C209.84 188.684 209.398 189.88 208.774 191.336C207.994 192.948 207.526 194.222 207.37 195.158C206.33 196.978 204.614 198.72 202.222 200.384C199.882 202.048 197.334 203.4 194.578 204.44C191.822 205.48 189.404 206 187.324 206C177.288 206 170.138 202.568 165.874 195.704C164.678 193.78 163.742 191.778 163.066 189.698C162.442 187.618 162.13 185.59 162.13 183.614C162.13 178.31 163.066 173.708 164.938 169.808C166.862 165.856 169.514 162.788 172.894 160.604C174.922 159.408 177.028 158.42 179.212 157.64C181.448 156.808 183.424 156.392 185.14 156.392ZM170.242 183.848C170.242 186.656 170.866 188.97 172.114 190.79C173.414 192.61 175.39 194.586 178.042 196.718C180.226 197.55 181.708 198.096 182.488 198.356C183.268 198.564 184.152 198.668 185.14 198.668C190.392 198.668 194.578 197.238 197.698 194.378C200.818 191.518 202.378 187.592 202.378 182.6C202.378 178.648 201.936 175.528 201.052 173.24C200.168 170.952 198.582 168.898 196.294 167.078C195.098 166.09 193.564 165.362 191.692 164.894C189.872 164.426 187.896 164.192 185.764 164.192C182.54 164.192 179.758 165.154 177.418 167.078C175.078 168.95 173.284 171.394 172.036 174.41C170.84 177.426 170.242 180.572 170.242 183.848ZM252.814 162.164C252.814 160.656 253.152 159.356 253.828 158.264C254.556 157.12 255.622 156.548 257.026 156.548C258.222 156.548 259.288 156.782 260.224 157.25C261.16 157.718 261.628 158.498 261.628 159.59C261.628 161.722 261.524 164.712 261.316 168.56C261.108 172.304 261.004 175.086 261.004 176.906C261.004 179.766 261.108 183.588 261.316 188.372C261.524 192.948 261.628 196.302 261.628 198.434C261.628 200.15 261.602 201.424 261.55 202.256C261.55 203.088 261.082 203.92 260.146 204.752C259.262 205.532 257.884 205.922 256.012 205.922C255.024 205.922 254.166 205.766 253.438 205.454C252.762 205.09 252.294 204.7 252.034 204.284C249.59 201.32 246.028 196.276 241.348 189.152C236.096 181.196 231.806 175.112 228.478 170.9C228.894 174.644 229.102 179.22 229.102 184.628C229.102 187.02 229.05 190.14 228.946 193.988C228.894 197.784 228.79 200.28 228.634 201.476C228.426 202.984 227.958 204.154 227.23 204.986C226.554 205.766 225.462 206.156 223.954 206.156C222.81 206.156 221.952 205.844 221.38 205.22C220.86 204.544 220.548 203.4 220.444 201.788C220.392 199.656 220.522 196.458 220.834 192.194C220.886 191.518 220.964 190.348 221.068 188.684C221.172 187.02 221.224 185.538 221.224 184.238C221.224 180.65 221.042 176.542 220.678 171.914C220.366 166.818 220.21 163.048 220.21 160.604C220.21 159.356 220.652 158.394 221.536 157.718C222.472 157.042 223.538 156.704 224.734 156.704C225.774 156.704 226.866 156.964 228.01 157.484C232.482 163.1 238.54 171.472 246.184 182.6L253.516 193.832C253.568 193 253.594 191.83 253.594 190.322C253.594 187.67 253.542 184.81 253.438 181.742C253.334 178.674 253.256 176.594 253.204 175.502C252.944 170.458 252.814 166.012 252.814 162.164ZM268.087 160.526C268.087 158.29 269.725 157.172 273.001 157.172C274.405 157.172 277.083 157.224 281.035 157.328C285.403 157.536 288.705 157.64 290.941 157.64C292.761 157.64 294.971 157.536 297.571 157.328C299.339 157.224 300.457 157.172 300.925 157.172C303.785 157.276 306.203 157.796 308.179 158.732C308.751 158.992 309.219 159.304 309.583 159.668C309.947 160.032 310.129 160.63 310.129 161.462C310.129 162.606 309.765 163.594 309.037 164.426C308.309 165.206 307.425 165.596 306.385 165.596C305.241 165.596 303.577 165.44 301.393 165.128C299.469 164.764 297.779 164.582 296.323 164.582C294.919 164.582 293.853 164.608 293.125 164.66C292.969 166.376 292.891 170.484 292.891 176.984C292.891 184.732 293.125 192.584 293.593 200.54L293.749 202.802C293.749 204.934 292.527 206 290.083 206C288.159 206 286.859 205.558 286.183 204.674C285.507 203.738 285.169 202.334 285.169 200.462C285.169 196.77 285.065 192.168 284.857 186.656C284.649 182.08 284.545 178.83 284.545 176.906C284.545 175.606 284.701 171.628 285.013 164.972L275.887 165.05C272.975 165.05 270.947 164.79 269.803 164.27C268.659 163.698 268.087 162.45 268.087 160.526Z" fill="#F7F7F8"/>
</svg>
